PathFileType	4	(X/Y/Z)	/Users/niels/Desktop/University/Third Semester/Perception and Action/Exam/Gymnastics Motion Tracking/Code for Gym Tracking/Analyzed Data/Webcam_Backflip/id19_2_trajectory_Sports2D/id19_2_trajectory_Sports2D_px_person00.trc
DataRate	CameraRate	NumFrames	NumMarkers	Units	OrigDataRate	OrigDataStartFrame	OrigNumFrames
29.714285714285715	29.714285714285715	10	22	m	29.714285714285715	39	105
Frame#	Time	Hip			RHip			RKnee			RAnkle			RBigToe			RSmallToe			RHeel			LHip			LKnee			LAnkle			LBigToe			LSmallToe			LHeel			Neck			Head			Nose			RShoulder			RElbow			RWrist			LShoulder			LElbow			LWrist		
		X1	Y1	Z1	X2	Y2	Z2	X3	Y3	Z3	X4	Y4	Z4	X5	Y5	Z5	X6	Y6	Z6	X7	Y7	Z7	X8	Y8	Z8	X9	Y9	Z9	X10	Y10	Z10	X11	Y11	Z11	X12	Y12	Z12	X13	Y13	Z13	X14	Y14	Z14	X15	Y15	Z15	X16	Y16	Z16	X17	Y17	Z17	X18	Y18	Z18	X19	Y19	Z19	X20	Y20	Z20	X21	Y21	Z21	X22	Y22	Z22
39	1.3125	0.37521613352657796	-0.6558907084628619	0.0	0.3676385558466064	-0.6525419505795339	0.0	0.37167962963115164	-0.791725422490437	0.0	0.38204235421531985	-0.9183215831690081	0.0	0.3193474918282593	-0.9494890421649504	0.0	0.3285950047876546	-0.9412881152986712	0.0	0.39528316645811296	-0.9399560802685283	0.0	0.3818936159115023	-0.6541374113395089	0.0	0.38957992395518604	-0.7968208248183509	0.0	0.3924739989082879	-0.934287527603222	0.0	0.33460325800571766	-0.9635262029389016	0.0	0.34538669697432	-0.9680677017885676	0.0	0.4050668734903831	-0.9572778155926477	0.0	0.39522197257439395	-0.4927398953576184	0.0	0.37885691883263145	-0.40404051906394756	0.0	0.3580431749878186	-0.4551736652230482	0.0	0.40739706679566623	-0.505668945774982	0.0	0.34976562401749006	-0.5658754917485611	0.0	0.33200739739789337	-0.522660697389349	0.0	0.3862025639273941	-0.5109169145192697	0.0	0.3263589705115355	-0.5737910761330246	0.0	0.312461036345367	-0.5119011841956401	0.0
40	1.346153846153846	0.37615682712254345	-0.6560278244930475	0.0	0.3715853002196039	-0.6529643049970524	0.0	0.3728433525528964	-0.7916179047769871	0.0	0.38189351382085274	-0.9187092850140969	0.0	0.3188046432358255	-0.9494619061781808	0.0	0.32812723012983774	-0.9411284214341417	0.0	0.3949060355847258	-0.9404174492711216	0.0	0.3807097995826404	-0.6540507180761075	0.0	0.3889576926591857	-0.7967563361403185	0.0	0.39201764992734456	-0.9347771766431907	0.0	0.3336604872173794	-0.9633480813589572	0.0	0.34439431313686897	-0.9679100202354932	0.0	0.4042883990089974	-0.95713137848061	0.0	0.39487343840554656	-0.49232800670164883	0.0	0.3785594048937608	-0.4033807005807645	0.0	0.3580647230371071	-0.45478634766613474	0.0	0.4099959912332612	-0.5060677558152671	0.0	0.35718485759284835	-0.569398836906859	0.0	0.3314637593485382	-0.5214131588106817	0.0	0.3813851586279479	-0.511628867354073	0.0	0.3306089256020828	-0.5816287203407621	0.0	0.304829074654471	-0.5214477081866447	0.0
41	1.3798076923076923	0.3772322819663828	-0.6562258723172053	0.0	0.37580083942145104	-0.6533707008248548	0.0	0.3741366495472406	-0.7918982117311428	0.0	0.3818818450699756	-0.919459331204064	0.0	0.3187923728746319	-0.9500294295495584	0.0	0.3278773051014288	-0.9418009554571963	0.0	0.39452796465961165	-0.9411835840437311	0.0	0.3795653394606935	-0.6540329025315987	0.0	0.38825134177135373	-0.7969322101280932	0.0	0.3915952746194086	-0.9350683360254844	0.0	0.33292474697406305	-0.9630544260986978	0.0	0.34368637867067175	-0.9677342833494957	0.0	0.403512012449979	-0.9568785134905897	0.0	0.39447721453670115	-0.4919549982082901	0.0	0.37788374271337355	-0.4028372389599069	0.0	0.35783838165239484	-0.45477194243340757	0.0	0.41183101973471387	-0.5066061621327529	0.0	0.3641839640977427	-0.5728538069570664	0.0	0.33057274265582753	-0.5246277380234173	0.0	0.37753970567897793	-0.5119365315485374	0.0	0.33510672417531534	-0.5872756541173847	0.0	0.29976795979559945	-0.530302634981779	0.0
42	1.4134615384615383	0.37851886324048967	-0.656437251091713	0.0	0.380177954352546	-0.6536026964681284	0.0	0.37561017942757224	-0.7924532082550706	0.0	0.3821284549105299	-0.9204179639159111	0.0	0.3194108178671258	-0.9509594859020458	0.0	0.32802600997152737	-0.9431104999985989	0.0	0.39424805022813747	-0.9421496959706289	0.0	0.37847945584820525	-0.6540286680099503	0.0	0.38744644031076125	-0.7972892724237122	0.0	0.39124529981976724	-0.9351245710822529	0.0	0.33247872859640526	-0.9626135166691636	0.0	0.34328064293992494	-0.9675394905994971	0.0	0.4028331597559573	-0.95658917397872	0.0	0.39394016777691315	-0.49163512541405924	0.0	0.3771883430888873	-0.4024993695940317	0.0	0.3574683800705067	-0.45494693126607155	0.0	0.4133698325279615	-0.5071616394648945	0.0	0.37038799404015765	-0.5756937039465536	0.0	0.33021513424404664	-0.5308653225862815	0.0	0.374230612804456	-0.5118555721358743	0.0	0.3392058931013938	-0.591014103626921	0.0	0.29715125546193044	-0.5384360684500351	0.0
43	1.4471153846153846	0.3799360150958585	-0.6566308575263976	0.0	0.38431825833445565	-0.6536075797657198	0.0	0.3771580235918787	-0.7931327936207717	0.0	0.38259586387031586	-0.9213507576156942	0.0	0.3204715691517609	-0.951940609253977	0.0	0.3285095107173673	-0.9446620905458895	0.0	0.39406283332270653	-0.94313889041279	0.0	0.37748414769657057	-0.6540529305429335	0.0	0.3865707844092914	-0.7977136371729409	0.0	0.39099205545255067	-0.9349746674818573	0.0	0.33225937906199754	-0.9620514007800971	0.0	0.3430500982324789	-0.9672901857115636	0.0	0.4023250388723189	-0.956314908670511	0.0	0.39321393885994227	-0.4913183859048286	0.0	0.37663869100884195	-0.4023470363796552	0.0	0.3570625355164983	-0.45514530400258646	0.0	0.41468357749674517	-0.5075720634241133	0.0	0.3756775042648815	-0.5776727051093126	0.0	0.33089208163593553	-0.5383585787940284	0.0	0.3711930770416303	-0.5114173375994906	0.0	0.3425743340902483	-0.5933092791994591	0.0	0.29656570892947987	-0.5458766020132144	0.0
44	1.4807692307692306	0.3813404607705018	-0.6567900198519004	0.0	0.3877953137085202	-0.6534340062636896	0.0	0.378619742073774	-0.7937811646953538	0.0	0.3831665279136219	-0.9220705883324026	0.0	0.321649787158536	-0.9527665228787336	0.0	0.3291077031042726	-0.9460825360640469	0.0	0.3939781277985584	-0.9439688855632561	0.0	0.3766763137137284	-0.6541438853481538	0.0	0.38571848591877933	-0.7980809955405985	0.0	0.390868973746913	-0.9346852958826735	0.0	0.33215390179043425	-0.9614587510284226	0.0	0.3428783078291418	-0.9669841884465992	0.0	0.4020196617474657	-0.9561048037767959	0.0	0.39229929539367514	-0.490973479765705	0.0	0.37629605278108696	-0.40229866098216144	0.0	0.3566475169786341	-0.4552765861917912	0.0	0.41560693164739926	-0.5077729022581772	0.0	0.3800244237641645	-0.5788153743550868	0.0	0.3325788223551776	-0.5455469207041193	0.0	0.36835221519235806	-0.5107452994180802	0.0	0.3451010663361242	-0.5946970996705405	0.0	0.29742319237847625	-0.5523820657025021	0.0
45	1.5144230769230769	0.3826320179580154	-0.6568945888156814	0.0	0.3904334559164619	-0.6531429172727296	0.0	0.3798443889398899	-0.7942322142889614	0.0	0.3837183900307009	-0.9225348823847856	0.0	0.32269613149806514	-0.9533934931271562	0.0	0.32961304090787785	-0.9471866503427163	0.0	0.3940144909897488	-0.9445433677983279	0.0	0.37617822902789727	-0.6542715505965382	0.0	0.38499140894747796	-0.7982559811043557	0.0	0.3908742832096997	-0.9343354637159982	0.0	0.3320680875700039	-0.9609825754020728	0.0	0.3427517495634871	-0.9666964243097167	0.0	0.4018914688529356	-0.9560077779519416	0.0	0.391229713394367	-0.4906078730434919	0.0	0.3761591193199763	-0.40228669146246065	0.0	0.3561648046212599	-0.4553118214306423	0.0	0.4159691316272876	-0.507812782282219	0.0	0.38333507212476126	-0.5793189247841485	0.0	0.3347445227259652	-0.5514134666248964	0.0	0.36572641743740325	-0.5100476951928801	0.0	0.3467063219475083	-0.5955886685565984	0.0	0.2990502793888266	-0.5575531435465072	0.0
46	1.548076923076923	0.38376095096347734	-0.6568887019913037	0.0	0.3923110090341026	-0.6527475965683358	0.0	0.3807113333999457	-0.7943528804117563	0.0	0.38416394571904394	-0.9227961598847422	0.0	0.32352303961829937	-0.9538399323760542	0.0	0.32993860726076213	-0.9479597056320253	0.0	0.39415533555768406	-0.9448517856537385	0.0	0.37604327983727426	-0.6543179437448718	0.0	0.3844362231874191	-0.7981440610402906	0.0	0.3909665691942562	-0.9339998635530398	0.0	0.33197249553508124	-0.9607452008808395	0.0	0.3427146659575338	-0.9665335947252793	0.0	0.40190929905937095	-0.9560494481307069	0.0	0.39006626723541377	-0.49024541077792866	0.0	0.3761554996604486	-0.4022871798579501	0.0	0.3555739265479669	-0.4552508532804902	0.0	0.4157393838653747	-0.5077545129416884	0.0	0.385447901700924	-0.5793890310591835	0.0	0.3366711955586154	-0.555552203702727	0.0	0.36338508923166224	-0.5095216611970786	0.0	0.3473177778727592	-0.5961850703548489	0.0	0.3008044651201447	-0.5611443298925395	0.0
47	1.5817307692307692	0.3846904277755938	-0.6567228685252129	0.0	0.39359304223171404	-0.6522795554158098	0.0	0.38118895917296736	-0.7941509416497193	0.0	0.38444847630536605	-0.9229150099357675	0.0	0.3241453853402932	-0.954117852679894	0.0	0.3301159436677448	-0.9484459250357284	0.0	0.3943331871951689	-0.9449309409942535	0.0	0.3761900343703696	-0.6541987608375508	0.0	0.38406014268598426	-0.7977862516792104	0.0	0.39109753032714206	-0.9337463974901534	0.0	0.3319015829680999	-0.9607658660599764	0.0	0.34277232544276226	-0.966564163975389	0.0	0.40205416528731025	-0.956212485191328	0.0	0.38891457779281924	-0.48991984502513	0.0	0.3761606372091576	-0.4023000030012138	0.0	0.354946053304448	-0.45512021799683144	0.0	0.4150585117033901	-0.5076553052670615	0.0	0.38641754349961227	-0.5791957915630859	0.0	0.33796201921458097	-0.558033002881045	0.0	0.36142107557020287	-0.5092751888198191	0.0	0.34697037123960195	-0.5965446131746778	0.0	0.30219344633820255	-0.5631952390650202	0.0
48	1.6153846153846154	0.3853961275904218	-0.656433250450777	0.0	0.3944011652550665	-0.6518504365135604	0.0	0.3813601167621667	-0.793793707249525	0.0	0.38455376558617416	-0.9229356406979669	0.0	0.32460805684370025	-0.9542403915683094	0.0	0.33023114470999865	-0.9486756234125012	0.0	0.39446905173508157	-0.9448549904959589	0.0	0.37643173842719063	-0.6539559237137741	0.0	0.3838680261180164	-0.7973570834134918	0.0	0.39121865967230374	-0.9336184612777216	0.0	0.33190492533261406	-0.9609706221699017	0.0	0.34287442006478974	-0.966771616771973	0.0	0.40227799086092314	-0.9564396009299294	0.0	0.38792310257847484	-0.48966446425634835	0.0	0.37604722296004045	-0.40233252759457533	0.0	0.35440192667099596	-0.4549675983484986	0.0	0.41416881243972975	-0.5075800848963488	0.0	0.38662746070685267	-0.578936390035563	0.0	0.3386259987214947	-0.5592065735824072	0.0	0.35992070076589056	-0.5093202851307399	0.0	0.3458496282970377	-0.5966811659118009	0.0	0.3029778744344192	-0.563974274984043	0.0
